<mxfile host="app.diagrams.net" modified="2021-08-19T02:12:37.191Z" agent="5.0 (X11; Linux x86_64) AppleWebKit/537.36 (KHTML, like Gecko) Chrome/92.0.4515.131 Safari/537.36" etag="lIcBKrcExR-QR-kuyKSb" version="14.9.8" type="github">
  <diagram id="dXOyBvdYNV0iGRBSRjgq" name="Page-1">
    <mxGraphModel dx="1422" dy="1970" grid="1" gridSize="10" guides="1" tooltips="1" connect="1" arrows="1" fold="1" page="1" pageScale="1" pageWidth="827" pageHeight="1169" math="0" shadow="0">
      <root>
        <mxCell id="0" />
        <mxCell id="1" parent="0" />
        <mxCell id="HeZseM4yFX7pQYepmPdF-14" value="Reservas" style="shape=table;startSize=30;container=1;collapsible=0;childLayout=tableLayout;fontStyle=1;align=center;pointerEvents=1;" vertex="1" parent="1">
          <mxGeometry x="240" y="-140" width="370" height="250" as="geometry" />
        </mxCell>
        <mxCell id="HeZseM4yFX7pQYepmPdF-58" style="shape=partialRectangle;html=1;whiteSpace=wrap;collapsible=0;dropTarget=0;pointerEvents=0;fillColor=none;top=0;left=0;bottom=0;right=0;points=[[0,0.5],[1,0.5]];portConstraint=eastwest;" vertex="1" parent="HeZseM4yFX7pQYepmPdF-14">
          <mxGeometry y="30" width="370" height="20" as="geometry" />
        </mxCell>
        <mxCell id="HeZseM4yFX7pQYepmPdF-59" value="CÃ³digo" style="shape=partialRectangle;html=1;whiteSpace=wrap;connectable=0;fillColor=none;top=0;left=0;bottom=0;right=0;overflow=hidden;pointerEvents=1;" vertex="1" parent="HeZseM4yFX7pQYepmPdF-58">
          <mxGeometry width="60" height="20" as="geometry" />
        </mxCell>
        <mxCell id="HeZseM4yFX7pQYepmPdF-60" value="Prazo" style="shape=partialRectangle;html=1;whiteSpace=wrap;connectable=0;fillColor=none;top=0;left=0;bottom=0;right=0;overflow=hidden;pointerEvents=1;" vertex="1" parent="HeZseM4yFX7pQYepmPdF-58">
          <mxGeometry x="60" width="60" height="20" as="geometry" />
        </mxCell>
        <mxCell id="HeZseM4yFX7pQYepmPdF-61" value="Passageiro" style="shape=partialRectangle;html=1;whiteSpace=wrap;connectable=0;fillColor=none;top=0;left=0;bottom=0;right=0;overflow=hidden;pointerEvents=1;" vertex="1" parent="HeZseM4yFX7pQYepmPdF-58">
          <mxGeometry x="120" width="140" height="20" as="geometry" />
        </mxCell>
        <mxCell id="HeZseM4yFX7pQYepmPdF-62" value="Assento" style="shape=partialRectangle;html=1;whiteSpace=wrap;connectable=0;fillColor=none;top=0;left=0;bottom=0;right=0;overflow=hidden;pointerEvents=1;" vertex="1" parent="HeZseM4yFX7pQYepmPdF-58">
          <mxGeometry x="260" width="50" height="20" as="geometry" />
        </mxCell>
        <mxCell id="HeZseM4yFX7pQYepmPdF-193" value="Trecho" style="shape=partialRectangle;html=1;whiteSpace=wrap;connectable=0;fillColor=none;top=0;left=0;bottom=0;right=0;overflow=hidden;pointerEvents=1;" vertex="1" parent="HeZseM4yFX7pQYepmPdF-58">
          <mxGeometry x="310" width="60" height="20" as="geometry" />
        </mxCell>
        <mxCell id="HeZseM4yFX7pQYepmPdF-15" value="" style="shape=partialRectangle;html=1;whiteSpace=wrap;collapsible=0;dropTarget=0;pointerEvents=0;fillColor=none;top=0;left=0;bottom=0;right=0;points=[[0,0.5],[1,0.5]];portConstraint=eastwest;" vertex="1" parent="HeZseM4yFX7pQYepmPdF-14">
          <mxGeometry y="50" width="370" height="40" as="geometry" />
        </mxCell>
        <mxCell id="HeZseM4yFX7pQYepmPdF-52" value="0010" style="shape=partialRectangle;html=1;whiteSpace=wrap;connectable=0;fillColor=none;top=0;left=0;bottom=0;right=0;overflow=hidden;pointerEvents=1;" vertex="1" parent="HeZseM4yFX7pQYepmPdF-15">
          <mxGeometry width="60" height="40" as="geometry" />
        </mxCell>
        <mxCell id="HeZseM4yFX7pQYepmPdF-55" value="12/12" style="shape=partialRectangle;html=1;whiteSpace=wrap;connectable=0;fillColor=none;top=0;left=0;bottom=0;right=0;overflow=hidden;pointerEvents=1;" vertex="1" parent="HeZseM4yFX7pQYepmPdF-15">
          <mxGeometry x="60" width="60" height="40" as="geometry" />
        </mxCell>
        <mxCell id="HeZseM4yFX7pQYepmPdF-17" value="Hans Ruebenich" style="shape=partialRectangle;html=1;whiteSpace=wrap;connectable=0;fillColor=none;top=0;left=0;bottom=0;right=0;overflow=hidden;pointerEvents=1;" vertex="1" parent="HeZseM4yFX7pQYepmPdF-15">
          <mxGeometry x="120" width="140" height="40" as="geometry" />
        </mxCell>
        <mxCell id="HeZseM4yFX7pQYepmPdF-63" value="0012" style="shape=partialRectangle;html=1;whiteSpace=wrap;connectable=0;fillColor=none;top=0;left=0;bottom=0;right=0;overflow=hidden;pointerEvents=1;" vertex="1" parent="HeZseM4yFX7pQYepmPdF-15">
          <mxGeometry x="260" width="50" height="40" as="geometry" />
        </mxCell>
        <mxCell id="HeZseM4yFX7pQYepmPdF-194" value="0900" style="shape=partialRectangle;html=1;whiteSpace=wrap;connectable=0;fillColor=none;top=0;left=0;bottom=0;right=0;overflow=hidden;pointerEvents=1;" vertex="1" parent="HeZseM4yFX7pQYepmPdF-15">
          <mxGeometry x="310" width="60" height="40" as="geometry" />
        </mxCell>
        <mxCell id="HeZseM4yFX7pQYepmPdF-19" value="" style="shape=partialRectangle;html=1;whiteSpace=wrap;collapsible=0;dropTarget=0;pointerEvents=0;fillColor=none;top=0;left=0;bottom=0;right=0;points=[[0,0.5],[1,0.5]];portConstraint=eastwest;" vertex="1" parent="HeZseM4yFX7pQYepmPdF-14">
          <mxGeometry y="90" width="370" height="40" as="geometry" />
        </mxCell>
        <mxCell id="HeZseM4yFX7pQYepmPdF-53" value="0020" style="shape=partialRectangle;html=1;whiteSpace=wrap;connectable=0;fillColor=none;top=0;left=0;bottom=0;right=0;overflow=hidden;pointerEvents=1;" vertex="1" parent="HeZseM4yFX7pQYepmPdF-19">
          <mxGeometry width="60" height="40" as="geometry" />
        </mxCell>
        <mxCell id="HeZseM4yFX7pQYepmPdF-56" value="24/12" style="shape=partialRectangle;html=1;whiteSpace=wrap;connectable=0;fillColor=none;top=0;left=0;bottom=0;right=0;overflow=hidden;pointerEvents=1;" vertex="1" parent="HeZseM4yFX7pQYepmPdF-19">
          <mxGeometry x="60" width="60" height="40" as="geometry" />
        </mxCell>
        <mxCell id="HeZseM4yFX7pQYepmPdF-21" value="Kaylaine Brauwer" style="shape=partialRectangle;html=1;whiteSpace=wrap;connectable=0;fillColor=none;top=0;left=0;bottom=0;right=0;overflow=hidden;pointerEvents=1;" vertex="1" parent="HeZseM4yFX7pQYepmPdF-19">
          <mxGeometry x="120" width="140" height="40" as="geometry" />
        </mxCell>
        <mxCell id="HeZseM4yFX7pQYepmPdF-64" value="0013" style="shape=partialRectangle;html=1;whiteSpace=wrap;connectable=0;fillColor=none;top=0;left=0;bottom=0;right=0;overflow=hidden;pointerEvents=1;" vertex="1" parent="HeZseM4yFX7pQYepmPdF-19">
          <mxGeometry x="260" width="50" height="40" as="geometry" />
        </mxCell>
        <mxCell id="HeZseM4yFX7pQYepmPdF-195" value="0900" style="shape=partialRectangle;html=1;whiteSpace=wrap;connectable=0;fillColor=none;top=0;left=0;bottom=0;right=0;overflow=hidden;pointerEvents=1;" vertex="1" parent="HeZseM4yFX7pQYepmPdF-19">
          <mxGeometry x="310" width="60" height="40" as="geometry" />
        </mxCell>
        <mxCell id="HeZseM4yFX7pQYepmPdF-212" style="shape=partialRectangle;html=1;whiteSpace=wrap;collapsible=0;dropTarget=0;pointerEvents=0;fillColor=none;top=0;left=0;bottom=0;right=0;points=[[0,0.5],[1,0.5]];portConstraint=eastwest;" vertex="1" parent="HeZseM4yFX7pQYepmPdF-14">
          <mxGeometry y="130" width="370" height="40" as="geometry" />
        </mxCell>
        <mxCell id="HeZseM4yFX7pQYepmPdF-213" value="0030" style="shape=partialRectangle;html=1;whiteSpace=wrap;connectable=0;fillColor=none;top=0;left=0;bottom=0;right=0;overflow=hidden;pointerEvents=1;" vertex="1" parent="HeZseM4yFX7pQYepmPdF-212">
          <mxGeometry width="60" height="40" as="geometry" />
        </mxCell>
        <mxCell id="HeZseM4yFX7pQYepmPdF-214" value="03/10" style="shape=partialRectangle;html=1;whiteSpace=wrap;connectable=0;fillColor=none;top=0;left=0;bottom=0;right=0;overflow=hidden;pointerEvents=1;" vertex="1" parent="HeZseM4yFX7pQYepmPdF-212">
          <mxGeometry x="60" width="60" height="40" as="geometry" />
        </mxCell>
        <mxCell id="HeZseM4yFX7pQYepmPdF-215" value="Rosmeri Maria" style="shape=partialRectangle;html=1;whiteSpace=wrap;connectable=0;fillColor=none;top=0;left=0;bottom=0;right=0;overflow=hidden;pointerEvents=1;" vertex="1" parent="HeZseM4yFX7pQYepmPdF-212">
          <mxGeometry x="120" width="140" height="40" as="geometry" />
        </mxCell>
        <mxCell id="HeZseM4yFX7pQYepmPdF-216" value="0222" style="shape=partialRectangle;html=1;whiteSpace=wrap;connectable=0;fillColor=none;top=0;left=0;bottom=0;right=0;overflow=hidden;pointerEvents=1;" vertex="1" parent="HeZseM4yFX7pQYepmPdF-212">
          <mxGeometry x="260" width="50" height="40" as="geometry" />
        </mxCell>
        <mxCell id="HeZseM4yFX7pQYepmPdF-217" value="0950" style="shape=partialRectangle;html=1;whiteSpace=wrap;connectable=0;fillColor=none;top=0;left=0;bottom=0;right=0;overflow=hidden;pointerEvents=1;" vertex="1" parent="HeZseM4yFX7pQYepmPdF-212">
          <mxGeometry x="310" width="60" height="40" as="geometry" />
        </mxCell>
        <mxCell id="HeZseM4yFX7pQYepmPdF-218" style="shape=partialRectangle;html=1;whiteSpace=wrap;collapsible=0;dropTarget=0;pointerEvents=0;fillColor=none;top=0;left=0;bottom=0;right=0;points=[[0,0.5],[1,0.5]];portConstraint=eastwest;" vertex="1" parent="HeZseM4yFX7pQYepmPdF-14">
          <mxGeometry y="170" width="370" height="40" as="geometry" />
        </mxCell>
        <mxCell id="HeZseM4yFX7pQYepmPdF-219" value="0040" style="shape=partialRectangle;html=1;whiteSpace=wrap;connectable=0;fillColor=none;top=0;left=0;bottom=0;right=0;overflow=hidden;pointerEvents=1;" vertex="1" parent="HeZseM4yFX7pQYepmPdF-218">
          <mxGeometry width="60" height="40" as="geometry" />
        </mxCell>
        <mxCell id="HeZseM4yFX7pQYepmPdF-220" value="07/11" style="shape=partialRectangle;html=1;whiteSpace=wrap;connectable=0;fillColor=none;top=0;left=0;bottom=0;right=0;overflow=hidden;pointerEvents=1;" vertex="1" parent="HeZseM4yFX7pQYepmPdF-218">
          <mxGeometry x="60" width="60" height="40" as="geometry" />
        </mxCell>
        <mxCell id="HeZseM4yFX7pQYepmPdF-221" value="Jorge AndÃ©" style="shape=partialRectangle;html=1;whiteSpace=wrap;connectable=0;fillColor=none;top=0;left=0;bottom=0;right=0;overflow=hidden;pointerEvents=1;" vertex="1" parent="HeZseM4yFX7pQYepmPdF-218">
          <mxGeometry x="120" width="140" height="40" as="geometry" />
        </mxCell>
        <mxCell id="HeZseM4yFX7pQYepmPdF-222" value="0223" style="shape=partialRectangle;html=1;whiteSpace=wrap;connectable=0;fillColor=none;top=0;left=0;bottom=0;right=0;overflow=hidden;pointerEvents=1;" vertex="1" parent="HeZseM4yFX7pQYepmPdF-218">
          <mxGeometry x="260" width="50" height="40" as="geometry" />
        </mxCell>
        <mxCell id="HeZseM4yFX7pQYepmPdF-223" value="0950" style="shape=partialRectangle;html=1;whiteSpace=wrap;connectable=0;fillColor=none;top=0;left=0;bottom=0;right=0;overflow=hidden;pointerEvents=1;" vertex="1" parent="HeZseM4yFX7pQYepmPdF-218">
          <mxGeometry x="310" width="60" height="40" as="geometry" />
        </mxCell>
        <mxCell id="HeZseM4yFX7pQYepmPdF-224" style="shape=partialRectangle;html=1;whiteSpace=wrap;collapsible=0;dropTarget=0;pointerEvents=0;fillColor=none;top=0;left=0;bottom=0;right=0;points=[[0,0.5],[1,0.5]];portConstraint=eastwest;" vertex="1" parent="HeZseM4yFX7pQYepmPdF-14">
          <mxGeometry y="210" width="370" height="40" as="geometry" />
        </mxCell>
        <mxCell id="HeZseM4yFX7pQYepmPdF-225" value="0050" style="shape=partialRectangle;html=1;whiteSpace=wrap;connectable=0;fillColor=none;top=0;left=0;bottom=0;right=0;overflow=hidden;pointerEvents=1;" vertex="1" parent="HeZseM4yFX7pQYepmPdF-224">
          <mxGeometry width="60" height="40" as="geometry" />
        </mxCell>
        <mxCell id="HeZseM4yFX7pQYepmPdF-226" value="18/11" style="shape=partialRectangle;html=1;whiteSpace=wrap;connectable=0;fillColor=none;top=0;left=0;bottom=0;right=0;overflow=hidden;pointerEvents=1;" vertex="1" parent="HeZseM4yFX7pQYepmPdF-224">
          <mxGeometry x="60" width="60" height="40" as="geometry" />
        </mxCell>
        <mxCell id="HeZseM4yFX7pQYepmPdF-227" value="Daiza Ramone" style="shape=partialRectangle;html=1;whiteSpace=wrap;connectable=0;fillColor=none;top=0;left=0;bottom=0;right=0;overflow=hidden;pointerEvents=1;" vertex="1" parent="HeZseM4yFX7pQYepmPdF-224">
          <mxGeometry x="120" width="140" height="40" as="geometry" />
        </mxCell>
        <mxCell id="HeZseM4yFX7pQYepmPdF-228" value="3000" style="shape=partialRectangle;html=1;whiteSpace=wrap;connectable=0;fillColor=none;top=0;left=0;bottom=0;right=0;overflow=hidden;pointerEvents=1;" vertex="1" parent="HeZseM4yFX7pQYepmPdF-224">
          <mxGeometry x="260" width="50" height="40" as="geometry" />
        </mxCell>
        <mxCell id="HeZseM4yFX7pQYepmPdF-229" value="0925" style="shape=partialRectangle;html=1;whiteSpace=wrap;connectable=0;fillColor=none;top=0;left=0;bottom=0;right=0;overflow=hidden;pointerEvents=1;" vertex="1" parent="HeZseM4yFX7pQYepmPdF-224">
          <mxGeometry x="310" width="60" height="40" as="geometry" />
        </mxCell>
        <mxCell id="HeZseM4yFX7pQYepmPdF-31" value="" style="shape=partialRectangle;html=1;whiteSpace=wrap;collapsible=0;dropTarget=0;pointerEvents=0;fillColor=none;top=0;left=0;bottom=0;right=0;points=[[0,0.5],[1,0.5]];portConstraint=eastwest;" vertex="1" parent="1">
          <mxGeometry x="320" y="190" width="180" height="40" as="geometry" />
        </mxCell>
        <mxCell id="HeZseM4yFX7pQYepmPdF-32" value="" style="shape=partialRectangle;html=1;whiteSpace=wrap;connectable=0;fillColor=none;top=0;left=0;bottom=0;right=0;overflow=hidden;pointerEvents=1;" vertex="1" parent="HeZseM4yFX7pQYepmPdF-31">
          <mxGeometry width="60" height="40" as="geometry" />
        </mxCell>
        <mxCell id="HeZseM4yFX7pQYepmPdF-33" value="" style="shape=partialRectangle;html=1;whiteSpace=wrap;connectable=0;fillColor=none;top=0;left=0;bottom=0;right=0;overflow=hidden;pointerEvents=1;" vertex="1" parent="HeZseM4yFX7pQYepmPdF-31">
          <mxGeometry x="60" width="60" height="40" as="geometry" />
        </mxCell>
        <mxCell id="HeZseM4yFX7pQYepmPdF-34" value="" style="shape=partialRectangle;html=1;whiteSpace=wrap;connectable=0;fillColor=none;top=0;left=0;bottom=0;right=0;overflow=hidden;pointerEvents=1;" vertex="1" parent="HeZseM4yFX7pQYepmPdF-31">
          <mxGeometry x="120" width="60" height="40" as="geometry" />
        </mxCell>
        <mxCell id="HeZseM4yFX7pQYepmPdF-48" value="" style="shape=partialRectangle;html=1;whiteSpace=wrap;collapsible=0;dropTarget=0;pointerEvents=0;fillColor=none;top=0;left=0;bottom=0;right=0;points=[[0,0.5],[1,0.5]];portConstraint=eastwest;" vertex="1" parent="1">
          <mxGeometry x="440" y="380" width="180" height="40" as="geometry" />
        </mxCell>
        <mxCell id="HeZseM4yFX7pQYepmPdF-49" value="" style="shape=partialRectangle;html=1;whiteSpace=wrap;connectable=0;fillColor=none;top=0;left=0;bottom=0;right=0;overflow=hidden;pointerEvents=1;" vertex="1" parent="HeZseM4yFX7pQYepmPdF-48">
          <mxGeometry width="60" height="40" as="geometry" />
        </mxCell>
        <mxCell id="HeZseM4yFX7pQYepmPdF-50" value="" style="shape=partialRectangle;html=1;whiteSpace=wrap;connectable=0;fillColor=none;top=0;left=0;bottom=0;right=0;overflow=hidden;pointerEvents=1;" vertex="1" parent="HeZseM4yFX7pQYepmPdF-48">
          <mxGeometry x="60" width="60" height="40" as="geometry" />
        </mxCell>
        <mxCell id="HeZseM4yFX7pQYepmPdF-51" value="" style="shape=partialRectangle;html=1;whiteSpace=wrap;connectable=0;fillColor=none;top=0;left=0;bottom=0;right=0;overflow=hidden;pointerEvents=1;" vertex="1" parent="HeZseM4yFX7pQYepmPdF-48">
          <mxGeometry x="120" width="60" height="40" as="geometry" />
        </mxCell>
        <mxCell id="HeZseM4yFX7pQYepmPdF-65" value="Assento" style="shape=table;startSize=30;container=1;collapsible=0;childLayout=tableLayout;fontStyle=1;align=center;pointerEvents=1;" vertex="1" parent="1">
          <mxGeometry x="290" y="160" width="240" height="250" as="geometry" />
        </mxCell>
        <mxCell id="HeZseM4yFX7pQYepmPdF-66" style="shape=partialRectangle;html=1;whiteSpace=wrap;collapsible=0;dropTarget=0;pointerEvents=0;fillColor=none;top=0;left=0;bottom=0;right=0;points=[[0,0.5],[1,0.5]];portConstraint=eastwest;" vertex="1" parent="HeZseM4yFX7pQYepmPdF-65">
          <mxGeometry y="30" width="240" height="20" as="geometry" />
        </mxCell>
        <mxCell id="HeZseM4yFX7pQYepmPdF-67" value="CÃ³digo" style="shape=partialRectangle;html=1;whiteSpace=wrap;connectable=0;fillColor=none;top=0;left=0;bottom=0;right=0;overflow=hidden;pointerEvents=1;" vertex="1" parent="HeZseM4yFX7pQYepmPdF-66">
          <mxGeometry width="60" height="20" as="geometry" />
        </mxCell>
        <mxCell id="HeZseM4yFX7pQYepmPdF-68" value="Classe" style="shape=partialRectangle;html=1;whiteSpace=wrap;connectable=0;fillColor=none;top=0;left=0;bottom=0;right=0;overflow=hidden;pointerEvents=1;" vertex="1" parent="HeZseM4yFX7pQYepmPdF-66">
          <mxGeometry x="60" width="100" height="20" as="geometry" />
        </mxCell>
        <mxCell id="HeZseM4yFX7pQYepmPdF-69" value="Aeronave" style="shape=partialRectangle;html=1;whiteSpace=wrap;connectable=0;fillColor=none;top=0;left=0;bottom=0;right=0;overflow=hidden;pointerEvents=1;" vertex="1" parent="HeZseM4yFX7pQYepmPdF-66">
          <mxGeometry x="160" width="80" height="20" as="geometry" />
        </mxCell>
        <mxCell id="HeZseM4yFX7pQYepmPdF-71" value="" style="shape=partialRectangle;html=1;whiteSpace=wrap;collapsible=0;dropTarget=0;pointerEvents=0;fillColor=none;top=0;left=0;bottom=0;right=0;points=[[0,0.5],[1,0.5]];portConstraint=eastwest;" vertex="1" parent="HeZseM4yFX7pQYepmPdF-65">
          <mxGeometry y="50" width="240" height="40" as="geometry" />
        </mxCell>
        <mxCell id="HeZseM4yFX7pQYepmPdF-72" value="0012" style="shape=partialRectangle;html=1;whiteSpace=wrap;connectable=0;fillColor=none;top=0;left=0;bottom=0;right=0;overflow=hidden;pointerEvents=1;" vertex="1" parent="HeZseM4yFX7pQYepmPdF-71">
          <mxGeometry width="60" height="40" as="geometry" />
        </mxCell>
        <mxCell id="HeZseM4yFX7pQYepmPdF-73" value="Economica" style="shape=partialRectangle;html=1;whiteSpace=wrap;connectable=0;fillColor=none;top=0;left=0;bottom=0;right=0;overflow=hidden;pointerEvents=1;" vertex="1" parent="HeZseM4yFX7pQYepmPdF-71">
          <mxGeometry x="60" width="100" height="40" as="geometry" />
        </mxCell>
        <mxCell id="HeZseM4yFX7pQYepmPdF-74" value="0150" style="shape=partialRectangle;html=1;whiteSpace=wrap;connectable=0;fillColor=none;top=0;left=0;bottom=0;right=0;overflow=hidden;pointerEvents=1;" vertex="1" parent="HeZseM4yFX7pQYepmPdF-71">
          <mxGeometry x="160" width="80" height="40" as="geometry" />
        </mxCell>
        <mxCell id="HeZseM4yFX7pQYepmPdF-76" value="" style="shape=partialRectangle;html=1;whiteSpace=wrap;collapsible=0;dropTarget=0;pointerEvents=0;fillColor=none;top=0;left=0;bottom=0;right=0;points=[[0,0.5],[1,0.5]];portConstraint=eastwest;" vertex="1" parent="HeZseM4yFX7pQYepmPdF-65">
          <mxGeometry y="90" width="240" height="40" as="geometry" />
        </mxCell>
        <mxCell id="HeZseM4yFX7pQYepmPdF-77" value="0013" style="shape=partialRectangle;html=1;whiteSpace=wrap;connectable=0;fillColor=none;top=0;left=0;bottom=0;right=0;overflow=hidden;pointerEvents=1;" vertex="1" parent="HeZseM4yFX7pQYepmPdF-76">
          <mxGeometry width="60" height="40" as="geometry" />
        </mxCell>
        <mxCell id="HeZseM4yFX7pQYepmPdF-78" style="shape=partialRectangle;html=1;whiteSpace=wrap;connectable=0;fillColor=none;top=0;left=0;bottom=0;right=0;overflow=hidden;pointerEvents=1;" vertex="1" parent="HeZseM4yFX7pQYepmPdF-76">
          <mxGeometry x="60" width="100" height="40" as="geometry" />
        </mxCell>
        <mxCell id="HeZseM4yFX7pQYepmPdF-79" value="0150" style="shape=partialRectangle;html=1;whiteSpace=wrap;connectable=0;fillColor=none;top=0;left=0;bottom=0;right=0;overflow=hidden;pointerEvents=1;" vertex="1" parent="HeZseM4yFX7pQYepmPdF-76">
          <mxGeometry x="160" width="80" height="40" as="geometry" />
        </mxCell>
        <mxCell id="HeZseM4yFX7pQYepmPdF-233" style="shape=partialRectangle;html=1;whiteSpace=wrap;collapsible=0;dropTarget=0;pointerEvents=0;fillColor=none;top=0;left=0;bottom=0;right=0;points=[[0,0.5],[1,0.5]];portConstraint=eastwest;" vertex="1" parent="HeZseM4yFX7pQYepmPdF-65">
          <mxGeometry y="130" width="240" height="40" as="geometry" />
        </mxCell>
        <mxCell id="HeZseM4yFX7pQYepmPdF-234" value="0222" style="shape=partialRectangle;html=1;whiteSpace=wrap;connectable=0;fillColor=none;top=0;left=0;bottom=0;right=0;overflow=hidden;pointerEvents=1;" vertex="1" parent="HeZseM4yFX7pQYepmPdF-233">
          <mxGeometry width="60" height="40" as="geometry" />
        </mxCell>
        <mxCell id="HeZseM4yFX7pQYepmPdF-235" value="Executiva" style="shape=partialRectangle;html=1;whiteSpace=wrap;connectable=0;fillColor=none;top=0;left=0;bottom=0;right=0;overflow=hidden;pointerEvents=1;" vertex="1" parent="HeZseM4yFX7pQYepmPdF-233">
          <mxGeometry x="60" width="100" height="40" as="geometry" />
        </mxCell>
        <mxCell id="HeZseM4yFX7pQYepmPdF-236" value="0125" style="shape=partialRectangle;html=1;whiteSpace=wrap;connectable=0;fillColor=none;top=0;left=0;bottom=0;right=0;overflow=hidden;pointerEvents=1;" vertex="1" parent="HeZseM4yFX7pQYepmPdF-233">
          <mxGeometry x="160" width="80" height="40" as="geometry" />
        </mxCell>
        <mxCell id="HeZseM4yFX7pQYepmPdF-237" style="shape=partialRectangle;html=1;whiteSpace=wrap;collapsible=0;dropTarget=0;pointerEvents=0;fillColor=none;top=0;left=0;bottom=0;right=0;points=[[0,0.5],[1,0.5]];portConstraint=eastwest;" vertex="1" parent="HeZseM4yFX7pQYepmPdF-65">
          <mxGeometry y="170" width="240" height="40" as="geometry" />
        </mxCell>
        <mxCell id="HeZseM4yFX7pQYepmPdF-238" value="0223" style="shape=partialRectangle;html=1;whiteSpace=wrap;connectable=0;fillColor=none;top=0;left=0;bottom=0;right=0;overflow=hidden;pointerEvents=1;" vertex="1" parent="HeZseM4yFX7pQYepmPdF-237">
          <mxGeometry width="60" height="40" as="geometry" />
        </mxCell>
        <mxCell id="HeZseM4yFX7pQYepmPdF-239" value="Executiva" style="shape=partialRectangle;html=1;whiteSpace=wrap;connectable=0;fillColor=none;top=0;left=0;bottom=0;right=0;overflow=hidden;pointerEvents=1;" vertex="1" parent="HeZseM4yFX7pQYepmPdF-237">
          <mxGeometry x="60" width="100" height="40" as="geometry" />
        </mxCell>
        <mxCell id="HeZseM4yFX7pQYepmPdF-240" value="0125" style="shape=partialRectangle;html=1;whiteSpace=wrap;connectable=0;fillColor=none;top=0;left=0;bottom=0;right=0;overflow=hidden;pointerEvents=1;" vertex="1" parent="HeZseM4yFX7pQYepmPdF-237">
          <mxGeometry x="160" width="80" height="40" as="geometry" />
        </mxCell>
        <mxCell id="HeZseM4yFX7pQYepmPdF-241" style="shape=partialRectangle;html=1;whiteSpace=wrap;collapsible=0;dropTarget=0;pointerEvents=0;fillColor=none;top=0;left=0;bottom=0;right=0;points=[[0,0.5],[1,0.5]];portConstraint=eastwest;" vertex="1" parent="HeZseM4yFX7pQYepmPdF-65">
          <mxGeometry y="210" width="240" height="40" as="geometry" />
        </mxCell>
        <mxCell id="HeZseM4yFX7pQYepmPdF-242" value="3000" style="shape=partialRectangle;html=1;whiteSpace=wrap;connectable=0;fillColor=none;top=0;left=0;bottom=0;right=0;overflow=hidden;pointerEvents=1;" vertex="1" parent="HeZseM4yFX7pQYepmPdF-241">
          <mxGeometry width="60" height="40" as="geometry" />
        </mxCell>
        <mxCell id="HeZseM4yFX7pQYepmPdF-243" style="shape=partialRectangle;html=1;whiteSpace=wrap;connectable=0;fillColor=none;top=0;left=0;bottom=0;right=0;overflow=hidden;pointerEvents=1;" vertex="1" parent="HeZseM4yFX7pQYepmPdF-241">
          <mxGeometry x="60" width="100" height="40" as="geometry" />
        </mxCell>
        <mxCell id="HeZseM4yFX7pQYepmPdF-244" value="0100" style="shape=partialRectangle;html=1;whiteSpace=wrap;connectable=0;fillColor=none;top=0;left=0;bottom=0;right=0;overflow=hidden;pointerEvents=1;" vertex="1" parent="HeZseM4yFX7pQYepmPdF-241">
          <mxGeometry x="160" width="80" height="40" as="geometry" />
        </mxCell>
        <mxCell id="HeZseM4yFX7pQYepmPdF-81" value="Aeronave" style="shape=table;startSize=30;container=1;collapsible=0;childLayout=tableLayout;fontStyle=1;align=center;pointerEvents=1;" vertex="1" parent="1">
          <mxGeometry x="315" y="440" width="190" height="170" as="geometry" />
        </mxCell>
        <mxCell id="HeZseM4yFX7pQYepmPdF-82" style="shape=partialRectangle;html=1;whiteSpace=wrap;collapsible=0;dropTarget=0;pointerEvents=0;fillColor=none;top=0;left=0;bottom=0;right=0;points=[[0,0.5],[1,0.5]];portConstraint=eastwest;" vertex="1" parent="HeZseM4yFX7pQYepmPdF-81">
          <mxGeometry y="30" width="190" height="20" as="geometry" />
        </mxCell>
        <mxCell id="HeZseM4yFX7pQYepmPdF-83" value="CÃ³digo" style="shape=partialRectangle;html=1;whiteSpace=wrap;connectable=0;fillColor=none;top=0;left=0;bottom=0;right=0;overflow=hidden;pointerEvents=1;" vertex="1" parent="HeZseM4yFX7pQYepmPdF-82">
          <mxGeometry width="60" height="20" as="geometry" />
        </mxCell>
        <mxCell id="HeZseM4yFX7pQYepmPdF-84" value="Modelo" style="shape=partialRectangle;html=1;whiteSpace=wrap;connectable=0;fillColor=none;top=0;left=0;bottom=0;right=0;overflow=hidden;pointerEvents=1;" vertex="1" parent="HeZseM4yFX7pQYepmPdF-82">
          <mxGeometry x="60" width="130" height="20" as="geometry" />
        </mxCell>
        <mxCell id="HeZseM4yFX7pQYepmPdF-87" value="" style="shape=partialRectangle;html=1;whiteSpace=wrap;collapsible=0;dropTarget=0;pointerEvents=0;fillColor=none;top=0;left=0;bottom=0;right=0;points=[[0,0.5],[1,0.5]];portConstraint=eastwest;" vertex="1" parent="HeZseM4yFX7pQYepmPdF-81">
          <mxGeometry y="50" width="190" height="40" as="geometry" />
        </mxCell>
        <mxCell id="HeZseM4yFX7pQYepmPdF-88" value="100" style="shape=partialRectangle;html=1;whiteSpace=wrap;connectable=0;fillColor=none;top=0;left=0;bottom=0;right=0;overflow=hidden;pointerEvents=1;" vertex="1" parent="HeZseM4yFX7pQYepmPdF-87">
          <mxGeometry width="60" height="40" as="geometry" />
        </mxCell>
        <mxCell id="HeZseM4yFX7pQYepmPdF-89" value="&lt;div&gt;Boeing 737&lt;/div&gt;&lt;div&gt;&lt;br&gt;&lt;/div&gt;" style="shape=partialRectangle;html=1;whiteSpace=wrap;connectable=0;fillColor=none;top=0;left=0;bottom=0;right=0;overflow=hidden;pointerEvents=1;" vertex="1" parent="HeZseM4yFX7pQYepmPdF-87">
          <mxGeometry x="60" width="130" height="40" as="geometry" />
        </mxCell>
        <mxCell id="HeZseM4yFX7pQYepmPdF-92" value="" style="shape=partialRectangle;html=1;whiteSpace=wrap;collapsible=0;dropTarget=0;pointerEvents=0;fillColor=none;top=0;left=0;bottom=0;right=0;points=[[0,0.5],[1,0.5]];portConstraint=eastwest;" vertex="1" parent="HeZseM4yFX7pQYepmPdF-81">
          <mxGeometry y="90" width="190" height="40" as="geometry" />
        </mxCell>
        <mxCell id="HeZseM4yFX7pQYepmPdF-93" value="0125" style="shape=partialRectangle;html=1;whiteSpace=wrap;connectable=0;fillColor=none;top=0;left=0;bottom=0;right=0;overflow=hidden;pointerEvents=1;" vertex="1" parent="HeZseM4yFX7pQYepmPdF-92">
          <mxGeometry width="60" height="40" as="geometry" />
        </mxCell>
        <mxCell id="HeZseM4yFX7pQYepmPdF-94" value="Boeing 747" style="shape=partialRectangle;html=1;whiteSpace=wrap;connectable=0;fillColor=none;top=0;left=0;bottom=0;right=0;overflow=hidden;pointerEvents=1;" vertex="1" parent="HeZseM4yFX7pQYepmPdF-92">
          <mxGeometry x="60" width="130" height="40" as="geometry" />
        </mxCell>
        <mxCell id="HeZseM4yFX7pQYepmPdF-271" style="shape=partialRectangle;html=1;whiteSpace=wrap;collapsible=0;dropTarget=0;pointerEvents=0;fillColor=none;top=0;left=0;bottom=0;right=0;points=[[0,0.5],[1,0.5]];portConstraint=eastwest;" vertex="1" parent="HeZseM4yFX7pQYepmPdF-81">
          <mxGeometry y="130" width="190" height="40" as="geometry" />
        </mxCell>
        <mxCell id="HeZseM4yFX7pQYepmPdF-272" value="0150" style="shape=partialRectangle;html=1;whiteSpace=wrap;connectable=0;fillColor=none;top=0;left=0;bottom=0;right=0;overflow=hidden;pointerEvents=1;" vertex="1" parent="HeZseM4yFX7pQYepmPdF-271">
          <mxGeometry width="60" height="40" as="geometry" />
        </mxCell>
        <mxCell id="HeZseM4yFX7pQYepmPdF-273" value="Airbus 319" style="shape=partialRectangle;html=1;whiteSpace=wrap;connectable=0;fillColor=none;top=0;left=0;bottom=0;right=0;overflow=hidden;pointerEvents=1;" vertex="1" parent="HeZseM4yFX7pQYepmPdF-271">
          <mxGeometry x="60" width="130" height="40" as="geometry" />
        </mxCell>
        <mxCell id="HeZseM4yFX7pQYepmPdF-97" value="Trecho" style="shape=table;startSize=30;container=1;collapsible=0;childLayout=tableLayout;fontStyle=1;align=center;pointerEvents=1;" vertex="1" parent="1">
          <mxGeometry x="750" y="40" width="480" height="170" as="geometry" />
        </mxCell>
        <mxCell id="HeZseM4yFX7pQYepmPdF-98" style="shape=partialRectangle;html=1;whiteSpace=wrap;collapsible=0;dropTarget=0;pointerEvents=0;fillColor=none;top=0;left=0;bottom=0;right=0;points=[[0,0.5],[1,0.5]];portConstraint=eastwest;" vertex="1" parent="HeZseM4yFX7pQYepmPdF-97">
          <mxGeometry y="30" width="480" height="20" as="geometry" />
        </mxCell>
        <mxCell id="HeZseM4yFX7pQYepmPdF-285" value="CÃ³digo" style="shape=partialRectangle;html=1;whiteSpace=wrap;connectable=0;fillColor=none;top=0;left=0;bottom=0;right=0;overflow=hidden;pointerEvents=1;" vertex="1" parent="HeZseM4yFX7pQYepmPdF-98">
          <mxGeometry width="60" height="20" as="geometry" />
        </mxCell>
        <mxCell id="HeZseM4yFX7pQYepmPdF-99" value="Origem" style="shape=partialRectangle;html=1;whiteSpace=wrap;connectable=0;fillColor=none;top=0;left=0;bottom=0;right=0;overflow=hidden;pointerEvents=1;" vertex="1" parent="HeZseM4yFX7pQYepmPdF-98">
          <mxGeometry x="60" width="120" height="20" as="geometry" />
        </mxCell>
        <mxCell id="HeZseM4yFX7pQYepmPdF-100" value="Destino" style="shape=partialRectangle;html=1;whiteSpace=wrap;connectable=0;fillColor=none;top=0;left=0;bottom=0;right=0;overflow=hidden;pointerEvents=1;" vertex="1" parent="HeZseM4yFX7pQYepmPdF-98">
          <mxGeometry x="180" width="120" height="20" as="geometry" />
        </mxCell>
        <mxCell id="HeZseM4yFX7pQYepmPdF-101" value="Aeronave" style="shape=partialRectangle;html=1;whiteSpace=wrap;connectable=0;fillColor=none;top=0;left=0;bottom=0;right=0;overflow=hidden;pointerEvents=1;" vertex="1" parent="HeZseM4yFX7pQYepmPdF-98">
          <mxGeometry x="300" width="60" height="20" as="geometry" />
        </mxCell>
        <mxCell id="HeZseM4yFX7pQYepmPdF-102" value="HorÃ¡rio" style="shape=partialRectangle;html=1;whiteSpace=wrap;connectable=0;fillColor=none;top=0;left=0;bottom=0;right=0;overflow=hidden;pointerEvents=1;" vertex="1" parent="HeZseM4yFX7pQYepmPdF-98">
          <mxGeometry x="360" width="60" height="20" as="geometry" />
        </mxCell>
        <mxCell id="HeZseM4yFX7pQYepmPdF-196" value="Voos" style="shape=partialRectangle;html=1;whiteSpace=wrap;connectable=0;fillColor=none;top=0;left=0;bottom=0;right=0;overflow=hidden;pointerEvents=1;" vertex="1" parent="HeZseM4yFX7pQYepmPdF-98">
          <mxGeometry x="420" width="60" height="20" as="geometry" />
        </mxCell>
        <mxCell id="HeZseM4yFX7pQYepmPdF-103" value="" style="shape=partialRectangle;html=1;whiteSpace=wrap;collapsible=0;dropTarget=0;pointerEvents=0;fillColor=none;top=0;left=0;bottom=0;right=0;points=[[0,0.5],[1,0.5]];portConstraint=eastwest;" vertex="1" parent="HeZseM4yFX7pQYepmPdF-97">
          <mxGeometry y="50" width="480" height="40" as="geometry" />
        </mxCell>
        <mxCell id="HeZseM4yFX7pQYepmPdF-286" value="0900" style="shape=partialRectangle;html=1;whiteSpace=wrap;connectable=0;fillColor=none;top=0;left=0;bottom=0;right=0;overflow=hidden;pointerEvents=1;" vertex="1" parent="HeZseM4yFX7pQYepmPdF-103">
          <mxGeometry width="60" height="40" as="geometry" />
        </mxCell>
        <mxCell id="HeZseM4yFX7pQYepmPdF-104" value="POA" style="shape=partialRectangle;html=1;whiteSpace=wrap;connectable=0;fillColor=none;top=0;left=0;bottom=0;right=0;overflow=hidden;pointerEvents=1;" vertex="1" parent="HeZseM4yFX7pQYepmPdF-103">
          <mxGeometry x="60" width="120" height="40" as="geometry" />
        </mxCell>
        <mxCell id="HeZseM4yFX7pQYepmPdF-105" value="SP" style="shape=partialRectangle;html=1;whiteSpace=wrap;connectable=0;fillColor=none;top=0;left=0;bottom=0;right=0;overflow=hidden;pointerEvents=1;" vertex="1" parent="HeZseM4yFX7pQYepmPdF-103">
          <mxGeometry x="180" width="120" height="40" as="geometry" />
        </mxCell>
        <mxCell id="HeZseM4yFX7pQYepmPdF-106" value="" style="shape=partialRectangle;html=1;whiteSpace=wrap;connectable=0;fillColor=none;top=0;left=0;bottom=0;right=0;overflow=hidden;pointerEvents=1;" vertex="1" parent="HeZseM4yFX7pQYepmPdF-103">
          <mxGeometry x="300" width="60" height="40" as="geometry" />
        </mxCell>
        <mxCell id="HeZseM4yFX7pQYepmPdF-107" style="shape=partialRectangle;html=1;whiteSpace=wrap;connectable=0;fillColor=none;top=0;left=0;bottom=0;right=0;overflow=hidden;pointerEvents=1;" vertex="1" parent="HeZseM4yFX7pQYepmPdF-103">
          <mxGeometry x="360" width="60" height="40" as="geometry" />
        </mxCell>
        <mxCell id="HeZseM4yFX7pQYepmPdF-197" style="shape=partialRectangle;html=1;whiteSpace=wrap;connectable=0;fillColor=none;top=0;left=0;bottom=0;right=0;overflow=hidden;pointerEvents=1;" vertex="1" parent="HeZseM4yFX7pQYepmPdF-103">
          <mxGeometry x="420" width="60" height="40" as="geometry" />
        </mxCell>
        <mxCell id="HeZseM4yFX7pQYepmPdF-108" value="" style="shape=partialRectangle;html=1;whiteSpace=wrap;collapsible=0;dropTarget=0;pointerEvents=0;fillColor=none;top=0;left=0;bottom=0;right=0;points=[[0,0.5],[1,0.5]];portConstraint=eastwest;" vertex="1" parent="HeZseM4yFX7pQYepmPdF-97">
          <mxGeometry y="90" width="480" height="40" as="geometry" />
        </mxCell>
        <mxCell id="HeZseM4yFX7pQYepmPdF-287" value="0925" style="shape=partialRectangle;html=1;whiteSpace=wrap;connectable=0;fillColor=none;top=0;left=0;bottom=0;right=0;overflow=hidden;pointerEvents=1;" vertex="1" parent="HeZseM4yFX7pQYepmPdF-108">
          <mxGeometry width="60" height="40" as="geometry" />
        </mxCell>
        <mxCell id="HeZseM4yFX7pQYepmPdF-109" style="shape=partialRectangle;html=1;whiteSpace=wrap;connectable=0;fillColor=none;top=0;left=0;bottom=0;right=0;overflow=hidden;pointerEvents=1;" vertex="1" parent="HeZseM4yFX7pQYepmPdF-108">
          <mxGeometry x="60" width="120" height="40" as="geometry" />
        </mxCell>
        <mxCell id="HeZseM4yFX7pQYepmPdF-110" style="shape=partialRectangle;html=1;whiteSpace=wrap;connectable=0;fillColor=none;top=0;left=0;bottom=0;right=0;overflow=hidden;pointerEvents=1;" vertex="1" parent="HeZseM4yFX7pQYepmPdF-108">
          <mxGeometry x="180" width="120" height="40" as="geometry" />
        </mxCell>
        <mxCell id="HeZseM4yFX7pQYepmPdF-111" value="" style="shape=partialRectangle;html=1;whiteSpace=wrap;connectable=0;fillColor=none;top=0;left=0;bottom=0;right=0;overflow=hidden;pointerEvents=1;" vertex="1" parent="HeZseM4yFX7pQYepmPdF-108">
          <mxGeometry x="300" width="60" height="40" as="geometry" />
        </mxCell>
        <mxCell id="HeZseM4yFX7pQYepmPdF-112" style="shape=partialRectangle;html=1;whiteSpace=wrap;connectable=0;fillColor=none;top=0;left=0;bottom=0;right=0;overflow=hidden;pointerEvents=1;" vertex="1" parent="HeZseM4yFX7pQYepmPdF-108">
          <mxGeometry x="360" width="60" height="40" as="geometry" />
        </mxCell>
        <mxCell id="HeZseM4yFX7pQYepmPdF-198" style="shape=partialRectangle;html=1;whiteSpace=wrap;connectable=0;fillColor=none;top=0;left=0;bottom=0;right=0;overflow=hidden;pointerEvents=1;" vertex="1" parent="HeZseM4yFX7pQYepmPdF-108">
          <mxGeometry x="420" width="60" height="40" as="geometry" />
        </mxCell>
        <mxCell id="HeZseM4yFX7pQYepmPdF-291" style="shape=partialRectangle;html=1;whiteSpace=wrap;collapsible=0;dropTarget=0;pointerEvents=0;fillColor=none;top=0;left=0;bottom=0;right=0;points=[[0,0.5],[1,0.5]];portConstraint=eastwest;" vertex="1" parent="HeZseM4yFX7pQYepmPdF-97">
          <mxGeometry y="130" width="480" height="40" as="geometry" />
        </mxCell>
        <mxCell id="HeZseM4yFX7pQYepmPdF-292" value="0950" style="shape=partialRectangle;html=1;whiteSpace=wrap;connectable=0;fillColor=none;top=0;left=0;bottom=0;right=0;overflow=hidden;pointerEvents=1;" vertex="1" parent="HeZseM4yFX7pQYepmPdF-291">
          <mxGeometry width="60" height="40" as="geometry" />
        </mxCell>
        <mxCell id="HeZseM4yFX7pQYepmPdF-293" style="shape=partialRectangle;html=1;whiteSpace=wrap;connectable=0;fillColor=none;top=0;left=0;bottom=0;right=0;overflow=hidden;pointerEvents=1;" vertex="1" parent="HeZseM4yFX7pQYepmPdF-291">
          <mxGeometry x="60" width="120" height="40" as="geometry" />
        </mxCell>
        <mxCell id="HeZseM4yFX7pQYepmPdF-294" style="shape=partialRectangle;html=1;whiteSpace=wrap;connectable=0;fillColor=none;top=0;left=0;bottom=0;right=0;overflow=hidden;pointerEvents=1;" vertex="1" parent="HeZseM4yFX7pQYepmPdF-291">
          <mxGeometry x="180" width="120" height="40" as="geometry" />
        </mxCell>
        <mxCell id="HeZseM4yFX7pQYepmPdF-295" style="shape=partialRectangle;html=1;whiteSpace=wrap;connectable=0;fillColor=none;top=0;left=0;bottom=0;right=0;overflow=hidden;pointerEvents=1;" vertex="1" parent="HeZseM4yFX7pQYepmPdF-291">
          <mxGeometry x="300" width="60" height="40" as="geometry" />
        </mxCell>
        <mxCell id="HeZseM4yFX7pQYepmPdF-296" style="shape=partialRectangle;html=1;whiteSpace=wrap;connectable=0;fillColor=none;top=0;left=0;bottom=0;right=0;overflow=hidden;pointerEvents=1;" vertex="1" parent="HeZseM4yFX7pQYepmPdF-291">
          <mxGeometry x="360" width="60" height="40" as="geometry" />
        </mxCell>
        <mxCell id="HeZseM4yFX7pQYepmPdF-297" style="shape=partialRectangle;html=1;whiteSpace=wrap;connectable=0;fillColor=none;top=0;left=0;bottom=0;right=0;overflow=hidden;pointerEvents=1;" vertex="1" parent="HeZseM4yFX7pQYepmPdF-291">
          <mxGeometry x="420" width="60" height="40" as="geometry" />
        </mxCell>
        <mxCell id="HeZseM4yFX7pQYepmPdF-113" value="Cidades" style="shape=table;startSize=30;container=1;collapsible=0;childLayout=tableLayout;fontStyle=1;align=center;pointerEvents=1;" vertex="1" parent="1">
          <mxGeometry x="770" y="560" width="270" height="210" as="geometry" />
        </mxCell>
        <mxCell id="HeZseM4yFX7pQYepmPdF-114" style="shape=partialRectangle;html=1;whiteSpace=wrap;collapsible=0;dropTarget=0;pointerEvents=0;fillColor=none;top=0;left=0;bottom=0;right=0;points=[[0,0.5],[1,0.5]];portConstraint=eastwest;" vertex="1" parent="HeZseM4yFX7pQYepmPdF-113">
          <mxGeometry y="30" width="270" height="20" as="geometry" />
        </mxCell>
        <mxCell id="HeZseM4yFX7pQYepmPdF-115" value="CÃ³digo" style="shape=partialRectangle;html=1;whiteSpace=wrap;connectable=0;fillColor=none;top=0;left=0;bottom=0;right=0;overflow=hidden;pointerEvents=1;" vertex="1" parent="HeZseM4yFX7pQYepmPdF-114">
          <mxGeometry width="60" height="20" as="geometry" />
        </mxCell>
        <mxCell id="HeZseM4yFX7pQYepmPdF-116" value="Nome" style="shape=partialRectangle;html=1;whiteSpace=wrap;connectable=0;fillColor=none;top=0;left=0;bottom=0;right=0;overflow=hidden;pointerEvents=1;" vertex="1" parent="HeZseM4yFX7pQYepmPdF-114">
          <mxGeometry x="60" width="90" height="20" as="geometry" />
        </mxCell>
        <mxCell id="HeZseM4yFX7pQYepmPdF-117" value="Estado" style="shape=partialRectangle;html=1;whiteSpace=wrap;connectable=0;fillColor=none;top=0;left=0;bottom=0;right=0;overflow=hidden;pointerEvents=1;" vertex="1" parent="HeZseM4yFX7pQYepmPdF-114">
          <mxGeometry x="150" width="60" height="20" as="geometry" />
        </mxCell>
        <mxCell id="HeZseM4yFX7pQYepmPdF-118" value="PaÃ­s" style="shape=partialRectangle;html=1;whiteSpace=wrap;connectable=0;fillColor=none;top=0;left=0;bottom=0;right=0;overflow=hidden;pointerEvents=1;" vertex="1" parent="HeZseM4yFX7pQYepmPdF-114">
          <mxGeometry x="210" width="60" height="20" as="geometry" />
        </mxCell>
        <mxCell id="HeZseM4yFX7pQYepmPdF-119" value="" style="shape=partialRectangle;html=1;whiteSpace=wrap;collapsible=0;dropTarget=0;pointerEvents=0;fillColor=none;top=0;left=0;bottom=0;right=0;points=[[0,0.5],[1,0.5]];portConstraint=eastwest;" vertex="1" parent="HeZseM4yFX7pQYepmPdF-113">
          <mxGeometry y="50" width="270" height="40" as="geometry" />
        </mxCell>
        <mxCell id="HeZseM4yFX7pQYepmPdF-120" value="0005" style="shape=partialRectangle;html=1;whiteSpace=wrap;connectable=0;fillColor=none;top=0;left=0;bottom=0;right=0;overflow=hidden;pointerEvents=1;" vertex="1" parent="HeZseM4yFX7pQYepmPdF-119">
          <mxGeometry width="60" height="40" as="geometry" />
        </mxCell>
        <mxCell id="HeZseM4yFX7pQYepmPdF-121" value="Porto Alegre" style="shape=partialRectangle;html=1;whiteSpace=wrap;connectable=0;fillColor=none;top=0;left=0;bottom=0;right=0;overflow=hidden;pointerEvents=1;" vertex="1" parent="HeZseM4yFX7pQYepmPdF-119">
          <mxGeometry x="60" width="90" height="40" as="geometry" />
        </mxCell>
        <mxCell id="HeZseM4yFX7pQYepmPdF-122" value="RS" style="shape=partialRectangle;html=1;whiteSpace=wrap;connectable=0;fillColor=none;top=0;left=0;bottom=0;right=0;overflow=hidden;pointerEvents=1;" vertex="1" parent="HeZseM4yFX7pQYepmPdF-119">
          <mxGeometry x="150" width="60" height="40" as="geometry" />
        </mxCell>
        <mxCell id="HeZseM4yFX7pQYepmPdF-123" value="Brasil" style="shape=partialRectangle;html=1;whiteSpace=wrap;connectable=0;fillColor=none;top=0;left=0;bottom=0;right=0;overflow=hidden;pointerEvents=1;" vertex="1" parent="HeZseM4yFX7pQYepmPdF-119">
          <mxGeometry x="210" width="60" height="40" as="geometry" />
        </mxCell>
        <mxCell id="HeZseM4yFX7pQYepmPdF-124" value="" style="shape=partialRectangle;html=1;whiteSpace=wrap;collapsible=0;dropTarget=0;pointerEvents=0;fillColor=none;top=0;left=0;bottom=0;right=0;points=[[0,0.5],[1,0.5]];portConstraint=eastwest;" vertex="1" parent="HeZseM4yFX7pQYepmPdF-113">
          <mxGeometry y="90" width="270" height="40" as="geometry" />
        </mxCell>
        <mxCell id="HeZseM4yFX7pQYepmPdF-125" value="0010" style="shape=partialRectangle;html=1;whiteSpace=wrap;connectable=0;fillColor=none;top=0;left=0;bottom=0;right=0;overflow=hidden;pointerEvents=1;" vertex="1" parent="HeZseM4yFX7pQYepmPdF-124">
          <mxGeometry width="60" height="40" as="geometry" />
        </mxCell>
        <mxCell id="HeZseM4yFX7pQYepmPdF-126" value="Guarulhos" style="shape=partialRectangle;html=1;whiteSpace=wrap;connectable=0;fillColor=none;top=0;left=0;bottom=0;right=0;overflow=hidden;pointerEvents=1;" vertex="1" parent="HeZseM4yFX7pQYepmPdF-124">
          <mxGeometry x="60" width="90" height="40" as="geometry" />
        </mxCell>
        <mxCell id="HeZseM4yFX7pQYepmPdF-127" value="SP" style="shape=partialRectangle;html=1;whiteSpace=wrap;connectable=0;fillColor=none;top=0;left=0;bottom=0;right=0;overflow=hidden;pointerEvents=1;" vertex="1" parent="HeZseM4yFX7pQYepmPdF-124">
          <mxGeometry x="150" width="60" height="40" as="geometry" />
        </mxCell>
        <mxCell id="HeZseM4yFX7pQYepmPdF-128" value="Brasil" style="shape=partialRectangle;html=1;whiteSpace=wrap;connectable=0;fillColor=none;top=0;left=0;bottom=0;right=0;overflow=hidden;pointerEvents=1;" vertex="1" parent="HeZseM4yFX7pQYepmPdF-124">
          <mxGeometry x="210" width="60" height="40" as="geometry" />
        </mxCell>
        <mxCell id="HeZseM4yFX7pQYepmPdF-325" style="shape=partialRectangle;html=1;whiteSpace=wrap;collapsible=0;dropTarget=0;pointerEvents=0;fillColor=none;top=0;left=0;bottom=0;right=0;points=[[0,0.5],[1,0.5]];portConstraint=eastwest;" vertex="1" parent="HeZseM4yFX7pQYepmPdF-113">
          <mxGeometry y="130" width="270" height="40" as="geometry" />
        </mxCell>
        <mxCell id="HeZseM4yFX7pQYepmPdF-326" value="0015" style="shape=partialRectangle;html=1;whiteSpace=wrap;connectable=0;fillColor=none;top=0;left=0;bottom=0;right=0;overflow=hidden;pointerEvents=1;" vertex="1" parent="HeZseM4yFX7pQYepmPdF-325">
          <mxGeometry width="60" height="40" as="geometry" />
        </mxCell>
        <mxCell id="HeZseM4yFX7pQYepmPdF-327" value="SÃ£o Paulo" style="shape=partialRectangle;html=1;whiteSpace=wrap;connectable=0;fillColor=none;top=0;left=0;bottom=0;right=0;overflow=hidden;pointerEvents=1;" vertex="1" parent="HeZseM4yFX7pQYepmPdF-325">
          <mxGeometry x="60" width="90" height="40" as="geometry" />
        </mxCell>
        <mxCell id="HeZseM4yFX7pQYepmPdF-328" value="SP" style="shape=partialRectangle;html=1;whiteSpace=wrap;connectable=0;fillColor=none;top=0;left=0;bottom=0;right=0;overflow=hidden;pointerEvents=1;" vertex="1" parent="HeZseM4yFX7pQYepmPdF-325">
          <mxGeometry x="150" width="60" height="40" as="geometry" />
        </mxCell>
        <mxCell id="HeZseM4yFX7pQYepmPdF-329" value="Brasil" style="shape=partialRectangle;html=1;whiteSpace=wrap;connectable=0;fillColor=none;top=0;left=0;bottom=0;right=0;overflow=hidden;pointerEvents=1;" vertex="1" parent="HeZseM4yFX7pQYepmPdF-325">
          <mxGeometry x="210" width="60" height="40" as="geometry" />
        </mxCell>
        <mxCell id="HeZseM4yFX7pQYepmPdF-330" style="shape=partialRectangle;html=1;whiteSpace=wrap;collapsible=0;dropTarget=0;pointerEvents=0;fillColor=none;top=0;left=0;bottom=0;right=0;points=[[0,0.5],[1,0.5]];portConstraint=eastwest;" vertex="1" parent="HeZseM4yFX7pQYepmPdF-113">
          <mxGeometry y="170" width="270" height="40" as="geometry" />
        </mxCell>
        <mxCell id="HeZseM4yFX7pQYepmPdF-331" value="0020" style="shape=partialRectangle;html=1;whiteSpace=wrap;connectable=0;fillColor=none;top=0;left=0;bottom=0;right=0;overflow=hidden;pointerEvents=1;" vertex="1" parent="HeZseM4yFX7pQYepmPdF-330">
          <mxGeometry width="60" height="40" as="geometry" />
        </mxCell>
        <mxCell id="HeZseM4yFX7pQYepmPdF-332" value="Lisboa" style="shape=partialRectangle;html=1;whiteSpace=wrap;connectable=0;fillColor=none;top=0;left=0;bottom=0;right=0;overflow=hidden;pointerEvents=1;" vertex="1" parent="HeZseM4yFX7pQYepmPdF-330">
          <mxGeometry x="60" width="90" height="40" as="geometry" />
        </mxCell>
        <mxCell id="HeZseM4yFX7pQYepmPdF-333" value="Lisboa" style="shape=partialRectangle;html=1;whiteSpace=wrap;connectable=0;fillColor=none;top=0;left=0;bottom=0;right=0;overflow=hidden;pointerEvents=1;" vertex="1" parent="HeZseM4yFX7pQYepmPdF-330">
          <mxGeometry x="150" width="60" height="40" as="geometry" />
        </mxCell>
        <mxCell id="HeZseM4yFX7pQYepmPdF-334" value="Portugal" style="shape=partialRectangle;html=1;whiteSpace=wrap;connectable=0;fillColor=none;top=0;left=0;bottom=0;right=0;overflow=hidden;pointerEvents=1;" vertex="1" parent="HeZseM4yFX7pQYepmPdF-330">
          <mxGeometry x="210" width="60" height="40" as="geometry" />
        </mxCell>
        <mxCell id="HeZseM4yFX7pQYepmPdF-161" value="Aeroportos" style="shape=table;startSize=30;container=1;collapsible=0;childLayout=tableLayout;fontStyle=1;align=center;pointerEvents=1;" vertex="1" parent="1">
          <mxGeometry x="784" y="285" width="366" height="210" as="geometry" />
        </mxCell>
        <mxCell id="HeZseM4yFX7pQYepmPdF-162" style="shape=partialRectangle;html=1;whiteSpace=wrap;collapsible=0;dropTarget=0;pointerEvents=0;fillColor=none;top=0;left=0;bottom=0;right=0;points=[[0,0.5],[1,0.5]];portConstraint=eastwest;" vertex="1" parent="HeZseM4yFX7pQYepmPdF-161">
          <mxGeometry y="30" width="366" height="20" as="geometry" />
        </mxCell>
        <mxCell id="HeZseM4yFX7pQYepmPdF-163" value="CÃ³digo" style="shape=partialRectangle;html=1;whiteSpace=wrap;connectable=0;fillColor=none;top=0;left=0;bottom=0;right=0;overflow=hidden;pointerEvents=1;" vertex="1" parent="HeZseM4yFX7pQYepmPdF-162">
          <mxGeometry width="60" height="20" as="geometry" />
        </mxCell>
        <mxCell id="HeZseM4yFX7pQYepmPdF-164" value="Nome" style="shape=partialRectangle;html=1;whiteSpace=wrap;connectable=0;fillColor=none;top=0;left=0;bottom=0;right=0;overflow=hidden;pointerEvents=1;" vertex="1" parent="HeZseM4yFX7pQYepmPdF-162">
          <mxGeometry x="60" width="153" height="20" as="geometry" />
        </mxCell>
        <mxCell id="HeZseM4yFX7pQYepmPdF-304" value="Cidade" style="shape=partialRectangle;html=1;whiteSpace=wrap;connectable=0;fillColor=none;top=0;left=0;bottom=0;right=0;overflow=hidden;pointerEvents=1;" vertex="1" parent="HeZseM4yFX7pQYepmPdF-162">
          <mxGeometry x="213" width="153" height="20" as="geometry" />
        </mxCell>
        <mxCell id="HeZseM4yFX7pQYepmPdF-167" value="" style="shape=partialRectangle;html=1;whiteSpace=wrap;collapsible=0;dropTarget=0;pointerEvents=0;fillColor=none;top=0;left=0;bottom=0;right=0;points=[[0,0.5],[1,0.5]];portConstraint=eastwest;" vertex="1" parent="HeZseM4yFX7pQYepmPdF-161">
          <mxGeometry y="50" width="366" height="40" as="geometry" />
        </mxCell>
        <mxCell id="HeZseM4yFX7pQYepmPdF-168" value="0500" style="shape=partialRectangle;html=1;whiteSpace=wrap;connectable=0;fillColor=none;top=0;left=0;bottom=0;right=0;overflow=hidden;pointerEvents=1;" vertex="1" parent="HeZseM4yFX7pQYepmPdF-167">
          <mxGeometry width="60" height="40" as="geometry" />
        </mxCell>
        <mxCell id="HeZseM4yFX7pQYepmPdF-169" value="&amp;nbsp;Aeroporto Salgado Filho" style="shape=partialRectangle;html=1;whiteSpace=wrap;connectable=0;fillColor=none;top=0;left=0;bottom=0;right=0;overflow=hidden;pointerEvents=1;" vertex="1" parent="HeZseM4yFX7pQYepmPdF-167">
          <mxGeometry x="60" width="153" height="40" as="geometry" />
        </mxCell>
        <mxCell id="HeZseM4yFX7pQYepmPdF-305" value="0005" style="shape=partialRectangle;html=1;whiteSpace=wrap;connectable=0;fillColor=none;top=0;left=0;bottom=0;right=0;overflow=hidden;pointerEvents=1;" vertex="1" parent="HeZseM4yFX7pQYepmPdF-167">
          <mxGeometry x="213" width="153" height="40" as="geometry" />
        </mxCell>
        <mxCell id="HeZseM4yFX7pQYepmPdF-172" value="" style="shape=partialRectangle;html=1;whiteSpace=wrap;collapsible=0;dropTarget=0;pointerEvents=0;fillColor=none;top=0;left=0;bottom=0;right=0;points=[[0,0.5],[1,0.5]];portConstraint=eastwest;" vertex="1" parent="HeZseM4yFX7pQYepmPdF-161">
          <mxGeometry y="90" width="366" height="40" as="geometry" />
        </mxCell>
        <mxCell id="HeZseM4yFX7pQYepmPdF-173" value="0525" style="shape=partialRectangle;html=1;whiteSpace=wrap;connectable=0;fillColor=none;top=0;left=0;bottom=0;right=0;overflow=hidden;pointerEvents=1;" vertex="1" parent="HeZseM4yFX7pQYepmPdF-172">
          <mxGeometry width="60" height="40" as="geometry" />
        </mxCell>
        <mxCell id="HeZseM4yFX7pQYepmPdF-174" value="Aeroporto de Congonhas" style="shape=partialRectangle;html=1;whiteSpace=wrap;connectable=0;fillColor=none;top=0;left=0;bottom=0;right=0;overflow=hidden;pointerEvents=1;" vertex="1" parent="HeZseM4yFX7pQYepmPdF-172">
          <mxGeometry x="60" width="153" height="40" as="geometry" />
        </mxCell>
        <mxCell id="HeZseM4yFX7pQYepmPdF-306" value="0010" style="shape=partialRectangle;html=1;whiteSpace=wrap;connectable=0;fillColor=none;top=0;left=0;bottom=0;right=0;overflow=hidden;pointerEvents=1;" vertex="1" parent="HeZseM4yFX7pQYepmPdF-172">
          <mxGeometry x="213" width="153" height="40" as="geometry" />
        </mxCell>
        <mxCell id="HeZseM4yFX7pQYepmPdF-317" style="shape=partialRectangle;html=1;whiteSpace=wrap;collapsible=0;dropTarget=0;pointerEvents=0;fillColor=none;top=0;left=0;bottom=0;right=0;points=[[0,0.5],[1,0.5]];portConstraint=eastwest;" vertex="1" parent="HeZseM4yFX7pQYepmPdF-161">
          <mxGeometry y="130" width="366" height="40" as="geometry" />
        </mxCell>
        <mxCell id="HeZseM4yFX7pQYepmPdF-318" value="0530" style="shape=partialRectangle;html=1;whiteSpace=wrap;connectable=0;fillColor=none;top=0;left=0;bottom=0;right=0;overflow=hidden;pointerEvents=1;" vertex="1" parent="HeZseM4yFX7pQYepmPdF-317">
          <mxGeometry width="60" height="40" as="geometry" />
        </mxCell>
        <mxCell id="HeZseM4yFX7pQYepmPdF-319" value="Aeroporto Internacional de SÃ£o Paulo" style="shape=partialRectangle;html=1;whiteSpace=wrap;connectable=0;fillColor=none;top=0;left=0;bottom=0;right=0;overflow=hidden;pointerEvents=1;" vertex="1" parent="HeZseM4yFX7pQYepmPdF-317">
          <mxGeometry x="60" width="153" height="40" as="geometry" />
        </mxCell>
        <mxCell id="HeZseM4yFX7pQYepmPdF-320" value="0015" style="shape=partialRectangle;html=1;whiteSpace=wrap;connectable=0;fillColor=none;top=0;left=0;bottom=0;right=0;overflow=hidden;pointerEvents=1;" vertex="1" parent="HeZseM4yFX7pQYepmPdF-317">
          <mxGeometry x="213" width="153" height="40" as="geometry" />
        </mxCell>
        <mxCell id="HeZseM4yFX7pQYepmPdF-321" style="shape=partialRectangle;html=1;whiteSpace=wrap;collapsible=0;dropTarget=0;pointerEvents=0;fillColor=none;top=0;left=0;bottom=0;right=0;points=[[0,0.5],[1,0.5]];portConstraint=eastwest;" vertex="1" parent="HeZseM4yFX7pQYepmPdF-161">
          <mxGeometry y="170" width="366" height="40" as="geometry" />
        </mxCell>
        <mxCell id="HeZseM4yFX7pQYepmPdF-322" value="0550" style="shape=partialRectangle;html=1;whiteSpace=wrap;connectable=0;fillColor=none;top=0;left=0;bottom=0;right=0;overflow=hidden;pointerEvents=1;" vertex="1" parent="HeZseM4yFX7pQYepmPdF-321">
          <mxGeometry width="60" height="40" as="geometry" />
        </mxCell>
        <mxCell id="HeZseM4yFX7pQYepmPdF-323" value="Aeroporto de Lisboa" style="shape=partialRectangle;html=1;whiteSpace=wrap;connectable=0;fillColor=none;top=0;left=0;bottom=0;right=0;overflow=hidden;pointerEvents=1;" vertex="1" parent="HeZseM4yFX7pQYepmPdF-321">
          <mxGeometry x="60" width="153" height="40" as="geometry" />
        </mxCell>
        <mxCell id="HeZseM4yFX7pQYepmPdF-324" value="0020" style="shape=partialRectangle;html=1;whiteSpace=wrap;connectable=0;fillColor=none;top=0;left=0;bottom=0;right=0;overflow=hidden;pointerEvents=1;" vertex="1" parent="HeZseM4yFX7pQYepmPdF-321">
          <mxGeometry x="213" width="153" height="40" as="geometry" />
        </mxCell>
        <mxCell id="HeZseM4yFX7pQYepmPdF-177" value="HorÃ¡rio" style="shape=table;startSize=30;container=1;collapsible=0;childLayout=tableLayout;fontStyle=1;align=center;pointerEvents=1;" vertex="1" parent="1">
          <mxGeometry x="240" y="930" width="240" height="130" as="geometry" />
        </mxCell>
        <mxCell id="HeZseM4yFX7pQYepmPdF-178" style="shape=partialRectangle;html=1;whiteSpace=wrap;collapsible=0;dropTarget=0;pointerEvents=0;fillColor=none;top=0;left=0;bottom=0;right=0;points=[[0,0.5],[1,0.5]];portConstraint=eastwest;" vertex="1" parent="HeZseM4yFX7pQYepmPdF-177">
          <mxGeometry y="30" width="240" height="20" as="geometry" />
        </mxCell>
        <mxCell id="HeZseM4yFX7pQYepmPdF-179" value="Hora" style="shape=partialRectangle;html=1;whiteSpace=wrap;connectable=0;fillColor=none;top=0;left=0;bottom=0;right=0;overflow=hidden;pointerEvents=1;" vertex="1" parent="HeZseM4yFX7pQYepmPdF-178">
          <mxGeometry width="120" height="20" as="geometry" />
        </mxCell>
        <mxCell id="HeZseM4yFX7pQYepmPdF-180" value="Dia da semana" style="shape=partialRectangle;html=1;whiteSpace=wrap;connectable=0;fillColor=none;top=0;left=0;bottom=0;right=0;overflow=hidden;pointerEvents=1;" vertex="1" parent="HeZseM4yFX7pQYepmPdF-178">
          <mxGeometry x="120" width="120" height="20" as="geometry" />
        </mxCell>
        <mxCell id="HeZseM4yFX7pQYepmPdF-183" value="" style="shape=partialRectangle;html=1;whiteSpace=wrap;collapsible=0;dropTarget=0;pointerEvents=0;fillColor=none;top=0;left=0;bottom=0;right=0;points=[[0,0.5],[1,0.5]];portConstraint=eastwest;" vertex="1" parent="HeZseM4yFX7pQYepmPdF-177">
          <mxGeometry y="50" width="240" height="40" as="geometry" />
        </mxCell>
        <mxCell id="HeZseM4yFX7pQYepmPdF-184" style="shape=partialRectangle;html=1;whiteSpace=wrap;connectable=0;fillColor=none;top=0;left=0;bottom=0;right=0;overflow=hidden;pointerEvents=1;" vertex="1" parent="HeZseM4yFX7pQYepmPdF-183">
          <mxGeometry width="120" height="40" as="geometry" />
        </mxCell>
        <mxCell id="HeZseM4yFX7pQYepmPdF-185" style="shape=partialRectangle;html=1;whiteSpace=wrap;connectable=0;fillColor=none;top=0;left=0;bottom=0;right=0;overflow=hidden;pointerEvents=1;" vertex="1" parent="HeZseM4yFX7pQYepmPdF-183">
          <mxGeometry x="120" width="120" height="40" as="geometry" />
        </mxCell>
        <mxCell id="HeZseM4yFX7pQYepmPdF-188" value="" style="shape=partialRectangle;html=1;whiteSpace=wrap;collapsible=0;dropTarget=0;pointerEvents=0;fillColor=none;top=0;left=0;bottom=0;right=0;points=[[0,0.5],[1,0.5]];portConstraint=eastwest;" vertex="1" parent="HeZseM4yFX7pQYepmPdF-177">
          <mxGeometry y="90" width="240" height="40" as="geometry" />
        </mxCell>
        <mxCell id="HeZseM4yFX7pQYepmPdF-189" style="shape=partialRectangle;html=1;whiteSpace=wrap;connectable=0;fillColor=none;top=0;left=0;bottom=0;right=0;overflow=hidden;pointerEvents=1;" vertex="1" parent="HeZseM4yFX7pQYepmPdF-188">
          <mxGeometry width="120" height="40" as="geometry" />
        </mxCell>
        <mxCell id="HeZseM4yFX7pQYepmPdF-190" style="shape=partialRectangle;html=1;whiteSpace=wrap;connectable=0;fillColor=none;top=0;left=0;bottom=0;right=0;overflow=hidden;pointerEvents=1;" vertex="1" parent="HeZseM4yFX7pQYepmPdF-188">
          <mxGeometry x="120" width="120" height="40" as="geometry" />
        </mxCell>
        <mxCell id="HeZseM4yFX7pQYepmPdF-202" value="Voos" style="shape=table;startSize=30;container=1;collapsible=0;childLayout=tableLayout;fontStyle=1;align=center;pointerEvents=1;" vertex="1" parent="1">
          <mxGeometry x="220" y="1130" width="120" height="130" as="geometry" />
        </mxCell>
        <mxCell id="HeZseM4yFX7pQYepmPdF-203" style="shape=partialRectangle;html=1;whiteSpace=wrap;collapsible=0;dropTarget=0;pointerEvents=0;fillColor=none;top=0;left=0;bottom=0;right=0;points=[[0,0.5],[1,0.5]];portConstraint=eastwest;" vertex="1" parent="HeZseM4yFX7pQYepmPdF-202">
          <mxGeometry y="30" width="120" height="20" as="geometry" />
        </mxCell>
        <mxCell id="HeZseM4yFX7pQYepmPdF-204" value="CÃ³digo" style="shape=partialRectangle;html=1;whiteSpace=wrap;connectable=0;fillColor=none;top=0;left=0;bottom=0;right=0;overflow=hidden;pointerEvents=1;" vertex="1" parent="HeZseM4yFX7pQYepmPdF-203">
          <mxGeometry width="60" height="20" as="geometry" />
        </mxCell>
        <mxCell id="HeZseM4yFX7pQYepmPdF-205" value="NÃºmero" style="shape=partialRectangle;html=1;whiteSpace=wrap;connectable=0;fillColor=none;top=0;left=0;bottom=0;right=0;overflow=hidden;pointerEvents=1;" vertex="1" parent="HeZseM4yFX7pQYepmPdF-203">
          <mxGeometry x="60" width="60" height="20" as="geometry" />
        </mxCell>
        <mxCell id="HeZseM4yFX7pQYepmPdF-206" value="" style="shape=partialRectangle;html=1;whiteSpace=wrap;collapsible=0;dropTarget=0;pointerEvents=0;fillColor=none;top=0;left=0;bottom=0;right=0;points=[[0,0.5],[1,0.5]];portConstraint=eastwest;" vertex="1" parent="HeZseM4yFX7pQYepmPdF-202">
          <mxGeometry y="50" width="120" height="40" as="geometry" />
        </mxCell>
        <mxCell id="HeZseM4yFX7pQYepmPdF-207" style="shape=partialRectangle;html=1;whiteSpace=wrap;connectable=0;fillColor=none;top=0;left=0;bottom=0;right=0;overflow=hidden;pointerEvents=1;" vertex="1" parent="HeZseM4yFX7pQYepmPdF-206">
          <mxGeometry width="60" height="40" as="geometry" />
        </mxCell>
        <mxCell id="HeZseM4yFX7pQYepmPdF-208" style="shape=partialRectangle;html=1;whiteSpace=wrap;connectable=0;fillColor=none;top=0;left=0;bottom=0;right=0;overflow=hidden;pointerEvents=1;" vertex="1" parent="HeZseM4yFX7pQYepmPdF-206">
          <mxGeometry x="60" width="60" height="40" as="geometry" />
        </mxCell>
        <mxCell id="HeZseM4yFX7pQYepmPdF-209" value="" style="shape=partialRectangle;html=1;whiteSpace=wrap;collapsible=0;dropTarget=0;pointerEvents=0;fillColor=none;top=0;left=0;bottom=0;right=0;points=[[0,0.5],[1,0.5]];portConstraint=eastwest;" vertex="1" parent="HeZseM4yFX7pQYepmPdF-202">
          <mxGeometry y="90" width="120" height="40" as="geometry" />
        </mxCell>
        <mxCell id="HeZseM4yFX7pQYepmPdF-210" style="shape=partialRectangle;html=1;whiteSpace=wrap;connectable=0;fillColor=none;top=0;left=0;bottom=0;right=0;overflow=hidden;pointerEvents=1;" vertex="1" parent="HeZseM4yFX7pQYepmPdF-209">
          <mxGeometry width="60" height="40" as="geometry" />
        </mxCell>
        <mxCell id="HeZseM4yFX7pQYepmPdF-211" style="shape=partialRectangle;html=1;whiteSpace=wrap;connectable=0;fillColor=none;top=0;left=0;bottom=0;right=0;overflow=hidden;pointerEvents=1;" vertex="1" parent="HeZseM4yFX7pQYepmPdF-209">
          <mxGeometry x="60" width="60" height="40" as="geometry" />
        </mxCell>
        <mxCell id="HeZseM4yFX7pQYepmPdF-266" value="Economica" style="shape=partialRectangle;html=1;whiteSpace=wrap;connectable=0;fillColor=none;top=0;left=0;bottom=0;right=0;overflow=hidden;pointerEvents=1;" vertex="1" parent="1">
          <mxGeometry x="350" y="250" width="100" height="40" as="geometry" />
        </mxCell>
        <mxCell id="HeZseM4yFX7pQYepmPdF-267" value="Economica" style="shape=partialRectangle;html=1;whiteSpace=wrap;connectable=0;fillColor=none;top=0;left=0;bottom=0;right=0;overflow=hidden;pointerEvents=1;" vertex="1" parent="1">
          <mxGeometry x="350" y="370" width="100" height="40" as="geometry" />
        </mxCell>
      </root>
    </mxGraphModel>
  </diagram>
</mxfile>
